<svg xmlns="http://www.w3.org/2000/svg" viewBox="0 0 512 512" role="img" aria-label="Matchs">
  <defs>
    <clipPath id="navLeft">
      <rect x="0" y="0" width="256" height="512"/>
    </clipPath>
  </defs>

  <rect x="88" y="112" width="168" height="304" rx="32" fill="#0B1524"/>
  <rect x="256" y="112" width="168" height="304" rx="32" fill="#2EC4B6"/>

  <rect x="156" y="80" width="32" height="64" rx="16" fill="#22C55E"/>
  <rect x="324" y="80" width="32" height="64" rx="16" fill="#22C55E"/>

  <rect x="120" y="152" width="272" height="232" rx="18" fill="#FFFFFF"/>

  <g transform="translate(256 268)">
    <circle r="82" fill="#2EC4B6"/>
    <g clip-path="url(#navLeft)">
      <circle r="82" fill="#0B1524"/>
    </g>

    <g fill="none" stroke="#FFFFFF" stroke-width="3.5" stroke-linejoin="round">
      <circle r="82"/>
      <path d="M0 -82 L24 -25 L0 32 L-24 -25 Z"/>
      <path d="M24 -25 L77 -25 L48 16 L0 32 Z"/>
      <path d="M-24 -25 L-77 -25 L-48 16 L0 32 Z"/>
      <path d="M77 -25 L48 -66 L0 -82 L24 -25 Z"/>
      <path d="M-77 -25 L-48 -66 L0 -82 L-24 -25 Z"/>
      <path d="M48 16 L77 44 L24 71 L0 32 Z"/>
      <path d="M-48 16 L-77 44 L-24 71 L0 32 Z"/>
      <path d="M77 44 L48 71 L-48 71 L-77 44"/>
      <path d="M24 71 L0 82 L-24 71"/>
    </g>
  </g>
</svg>
